<svg width="196" height="240" viewBox="0 0 196 240" fill="none" xmlns="http://www.w3.org/2000/svg">
<g filter="url(#filter0_d_10_83)">
<rect x="15.1857" y="5.57385" width="159.712" height="57" transform="rotate(-2 15.1857 5.57385)" fill="white" shape-rendering="crispEdges"/>
<rect x="17.2542" y="7.50284" width="155.712" height="53" transform="rotate(-2 17.2542 7.50284)" stroke="black" stroke-width="4" shape-rendering="crispEdges"/>
<path d="M39.7671 37.7356L39.6493 34.3636L36.0951 28.0578L38.1518 27.986L40.3691 32.1111L40.621 32.1023L42.5451 27.8326L44.6019 27.7608L41.4962 34.2991L41.6139 37.6711L39.7671 37.7356ZM49.4 37.5953C48.1688 37.6383 47.1776 37.3344 46.4264 36.6835C45.6752 36.0327 45.2777 35.0776 45.2337 33.8184L45.1516 31.4678C45.1076 30.2086 45.4376 29.2282 46.1415 28.5265C46.8455 27.8248 47.8131 27.4525 49.0443 27.4095C50.2756 27.3665 51.2668 27.6704 52.018 28.3213C52.7691 28.9721 53.1667 29.9272 53.2107 31.1864L53.2928 33.537C53.3367 34.7962 53.0068 35.7766 52.3028 36.4783C51.5989 37.18 50.6313 37.5523 49.4 37.5953ZM49.3424 35.9443C50.0326 35.9202 50.562 35.7009 50.9304 35.2865C51.2988 34.872 51.4713 34.329 51.4478 33.6574L51.3619 31.1949C51.3384 30.5233 51.1285 29.9937 50.732 29.6059C50.3356 29.2182 49.7922 29.0364 49.102 29.0605C48.4211 29.0843 47.8941 29.3035 47.521 29.7181C47.1479 30.1327 46.9731 30.6758 46.9965 31.3474L47.0825 33.8099C47.106 34.4815 47.3182 35.011 47.7193 35.3986C48.1204 35.7862 48.6615 35.9681 49.3424 35.9443ZM58.8303 37.266C58.0281 37.294 57.3351 37.1711 56.7512 36.8973C56.1672 36.6235 55.7142 36.2191 55.392 35.684C55.0698 35.1489 54.8956 34.5083 54.8696 33.7621L54.6478 27.4099L56.4946 27.3455L56.7184 33.7535C56.7393 34.3505 56.9259 34.8156 57.2785 35.1489C57.631 35.4821 58.129 35.6375 58.7726 35.615C59.4162 35.5925 59.9022 35.4028 60.2307 35.0458C60.5591 34.6887 60.7128 34.2118 60.692 33.6148L60.4682 27.2067L62.3151 27.1422L62.5369 33.4943C62.563 34.2405 62.434 34.8918 62.1499 35.448C61.8658 36.0043 61.442 36.4393 60.8786 36.7532C60.3152 37.067 59.6325 37.238 58.8303 37.266ZM64.4379 31.3687L64.4047 30.4173L64.9503 30.3982C65.3794 30.3832 65.5864 30.1612 65.5715 29.7321L65.5558 29.2844L65.318 29.2927C64.9449 29.3057 64.6308 29.2046 64.3758 28.9894C64.1208 28.7742 63.9873 28.494 63.9752 28.1489C63.9622 27.7758 64.0752 27.4683 64.3143 27.2265C64.5533 26.9847 64.8594 26.8572 65.2325 26.8442C65.6149 26.8308 65.9315 26.9389 66.1824 27.1682C66.4332 27.3976 66.5656 27.7129 66.5796 28.114L66.6358 29.723C66.6723 30.7677 66.1682 31.3083 65.1235 31.3447L64.4379 31.3687ZM68.5615 36.73L68.2195 26.936L72.4729 26.7875C73.0885 26.766 73.6286 26.8545 74.0932 27.0531C74.5577 27.2517 74.9227 27.5424 75.1883 27.9254C75.4538 28.3084 75.5958 28.7657 75.6144 29.2974L75.6203 29.4653C75.6408 30.0529 75.5175 30.5335 75.2504 30.9071C74.9832 31.2806 74.6474 31.5585 74.2428 31.7407L74.2516 31.9926C74.6254 31.9982 74.919 32.1164 75.1326 32.347C75.3461 32.5777 75.4597 32.889 75.4733 33.2807L75.5852 36.4848L73.7384 36.5493L73.6358 33.6111C73.6279 33.3872 73.5633 33.2073 73.4418 33.0715C73.3203 32.9357 73.1243 32.8725 72.8538 32.8819L70.2794 32.9718L70.4084 36.6655L68.5615 36.73ZM70.2208 31.2928L72.4314 31.2156C72.8698 31.2003 73.2085 31.0694 73.4473 30.8229C73.6862 30.5764 73.7988 30.2573 73.7851 29.8656L73.7802 29.7256C73.7666 29.3339 73.6343 29.0233 73.3835 28.7939C73.1327 28.5645 72.7834 28.4577 72.3357 28.4733L70.125 28.5505L70.2208 31.2928ZM77.4041 36.4213L77.0621 26.6272L83.3583 26.4074L83.4169 28.0863L78.9676 28.2417L79.0492 30.5783L83.1067 30.4366L83.1654 32.1156L79.1078 32.2573L79.1924 34.6778L83.7256 34.5195L83.7842 36.1985L77.4041 36.4213ZM92.5218 36.0895C91.2905 36.1324 90.2993 35.8285 89.5481 35.1777C88.797 34.5268 88.3994 33.5718 88.3554 32.3126L88.2733 29.962C88.2293 28.7028 88.5593 27.7223 89.2633 27.0206C89.9672 26.319 90.9348 25.9467 92.1661 25.9037C93.3973 25.8607 94.3885 26.1646 95.1397 26.8154C95.8909 27.4663 96.2884 28.4213 96.3324 29.6806L96.4145 32.0311C96.4585 33.2904 96.1285 34.2708 95.4245 34.9725C94.7206 35.6741 93.753 36.0465 92.5218 36.0895ZM92.4641 34.4385C93.1543 34.4144 93.6837 34.1951 94.0521 33.7806C94.4205 33.3662 94.593 32.8232 94.5696 32.1516L94.4836 29.6891C94.4601 29.0175 94.2502 28.4878 93.8537 28.1001C93.4573 27.7124 92.914 27.5305 92.2237 27.5547C91.5428 27.5784 91.0158 27.7976 90.6427 28.2122C90.2696 28.6268 90.0948 29.1699 90.1182 29.8415L90.2042 32.304C90.2277 32.9756 90.44 33.5052 90.8411 33.8928C91.2422 34.2803 91.7832 34.4622 92.4641 34.4385ZM98.1675 35.6962L97.8255 25.9021L101.337 25.7795L103.58 34.2464L103.832 34.2376L103.534 25.7028L105.353 25.6393L105.695 35.4333L102.183 35.556L99.9402 27.0891L99.6883 27.0979L99.9864 35.6327L98.1675 35.6962ZM111.096 35.2447L110.754 25.4507L116.91 25.2357L116.968 26.9147L112.659 27.0652L112.742 29.4297L116.715 29.291L116.774 30.9699L112.8 31.1087L112.942 35.1802L111.096 35.2447ZM118.567 34.9838L118.225 25.1898L120.072 25.1253L120.414 34.9193L118.567 34.9838ZM122.261 34.8548L121.919 25.0608L126.172 24.9123C126.788 24.8908 127.328 24.9793 127.792 25.1779C128.257 25.3764 128.622 25.6672 128.888 26.0502C129.153 26.4332 129.295 26.8905 129.314 27.4222L129.32 27.59C129.34 28.1777 129.217 28.6583 128.95 29.0318C128.683 29.4054 128.347 29.6833 127.942 29.8655L127.951 30.1174C128.325 30.123 128.618 30.2411 128.832 30.4718C129.045 30.7025 129.159 31.0137 129.173 31.4055L129.285 34.6095L127.438 34.674L127.335 31.7358C127.327 31.512 127.263 31.3321 127.141 31.1963C127.02 31.0604 126.824 30.9972 126.553 31.0067L123.979 31.0966L124.108 34.7903L122.261 34.8548ZM123.92 29.4176L126.131 29.3404C126.569 29.3251 126.908 29.1942 127.147 28.9477C127.385 28.7012 127.498 28.3821 127.484 27.9903L127.48 27.8504C127.466 27.4587 127.334 27.1481 127.083 26.9187C126.832 26.6893 126.483 26.5824 126.035 26.5981L123.824 26.6753L123.92 29.4176ZM131.103 34.546L130.761 24.752L137.058 24.5321L137.116 26.2111L132.667 26.3665L132.748 28.7031L136.806 28.5614L136.865 30.2403L132.807 30.382L132.892 32.8026L137.425 32.6443L137.484 34.3232L131.103 34.546ZM139.008 31.048L138.778 24.472L140.569 24.4095L140.799 30.9855L139.008 31.048ZM140.03 34.4304C139.652 34.4436 139.331 34.33 139.065 34.0896C138.8 33.8493 138.661 33.5343 138.647 33.1447C138.633 32.7551 138.751 32.4322 138.998 32.1761C139.246 31.9199 139.559 31.7852 139.937 31.7721C140.315 31.7589 140.634 31.8725 140.894 32.1131C141.155 32.3536 141.292 32.6687 141.306 33.0583C141.319 33.4479 141.204 33.7707 140.961 34.0267C140.718 34.2827 140.408 34.4172 140.03 34.4304ZM145.689 35.0173L159.68 34.5287L159.192 20.5372L145.2 21.0258L145.689 35.0173Z" fill="black"/>
</g>
<g filter="url(#filter1_d_10_83)">
<rect y="75.5724" width="192" height="160" rx="8" fill="#FBFAEC" shape-rendering="crispEdges"/>
<rect x="2" y="77.5724" width="188" height="156" rx="6" stroke="black" stroke-width="4" shape-rendering="crispEdges"/>
<rect x="45" y="136.572" width="28" height="28" rx="10" fill="#FFD93D" stroke="black" stroke-width="4"/>
<rect x="109" y="136.572" width="28" height="28" rx="10" fill="#FFD93D" stroke="black" stroke-width="4"/>
<rect x="64" y="47.5724" width="8" height="32" fill="black"/>
<rect x="120" y="47.5724" width="8" height="32" fill="black"/>
</g>
<defs>
<filter id="filter0_d_10_83" x="15.1857" y="0" width="165.604" height="66.5392" filterUnits="userSpaceOnUse" color-interpolation-filters="sRGB">
<feFlood flood-opacity="0" result="BackgroundImageFix"/>
<feColorMatrix in="SourceAlpha" type="matrix" values="0 0 0 0 0 0 0 0 0 0 0 0 0 0 0 0 0 0 127 0" result="hardAlpha"/>
<feOffset dx="4" dy="4"/>
<feComposite in2="hardAlpha" operator="out"/>
<feColorMatrix type="matrix" values="0 0 0 0 0 0 0 0 0 0 0 0 0 0 0 0 0 0 1 0"/>
<feBlend mode="normal" in2="BackgroundImageFix" result="effect1_dropShadow_10_83"/>
<feBlend mode="normal" in="SourceGraphic" in2="effect1_dropShadow_10_83" result="shape"/>
</filter>
<filter id="filter1_d_10_83" x="0" y="47.5724" width="196" height="192" filterUnits="userSpaceOnUse" color-interpolation-filters="sRGB">
<feFlood flood-opacity="0" result="BackgroundImageFix"/>
<feColorMatrix in="SourceAlpha" type="matrix" values="0 0 0 0 0 0 0 0 0 0 0 0 0 0 0 0 0 0 127 0" result="hardAlpha"/>
<feOffset dx="4" dy="4"/>
<feComposite in2="hardAlpha" operator="out"/>
<feColorMatrix type="matrix" values="0 0 0 0 0 0 0 0 0 0 0 0 0 0 0 0 0 0 1 0"/>
<feBlend mode="normal" in2="BackgroundImageFix" result="effect1_dropShadow_10_83"/>
<feBlend mode="normal" in="SourceGraphic" in2="effect1_dropShadow_10_83" result="shape"/>
</filter>
</defs>
</svg>
